<svg width="820" height="520" viewBox="0 0 820 520" fill="none" xmlns="http://www.w3.org/2000/svg">
  <rect width="820" height="520" rx="40" fill="url(#paint0_linear)"/>
  <rect x="30" y="30" width="760" height="460" rx="30" fill="white" fill-opacity="0.88"/>
  <rect x="72" y="76" width="676" height="76" rx="24" fill="#EFF6FF"/>
  <circle cx="118" cy="114" r="18" fill="#1D4ED8"/>
  <rect x="154" y="96" width="164" height="14" rx="7" fill="#0B1220"/>
  <rect x="154" y="118" width="112" height="12" rx="6" fill="#64748B"/>
  <rect x="72" y="184" width="210" height="264" rx="28" fill="#F8FAFC"/>
  <rect x="94" y="206" width="166" height="112" rx="20" fill="url(#paint1_linear)"/>
  <rect x="94" y="338" width="124" height="16" rx="8" fill="#0B1220"/>
  <rect x="94" y="364" width="148" height="12" rx="6" fill="#64748B"/>
  <rect x="94" y="390" width="98" height="34" rx="17" fill="#DBEAFE"/>
  <rect x="308" y="184" width="220" height="126" rx="28" fill="#0B1220"/>
  <rect x="332" y="208" width="108" height="12" rx="6" fill="white"/>
  <rect x="332" y="230" width="152" height="12" rx="6" fill="#BFDBFE"/>
  <rect x="332" y="264" width="172" height="24" rx="12" fill="#1D4ED8"/>
  <rect x="554" y="184" width="194" height="264" rx="28" fill="#F8FAFC"/>
  <rect x="578" y="208" width="146" height="180" rx="22" fill="url(#paint2_linear)"/>
  <rect x="332" y="338" width="196" height="110" rx="24" fill="#EFF6FF"/>
  <rect x="356" y="364" width="92" height="14" rx="7" fill="#0B1220"/>
  <rect x="356" y="388" width="128" height="12" rx="6" fill="#64748B"/>
  <rect x="356" y="412" width="74" height="12" rx="6" fill="#64748B"/>
  <circle cx="676" cy="120" r="64" fill="#DBEAFE"/>
  <path d="M643 120C643 101.775 657.775 87 676 87C694.225 87 709 101.775 709 120C709 138.225 694.225 153 676 153C657.775 153 643 138.225 643 120Z" fill="#1D4ED8"/>
  <path d="M665 103H688C692.418 103 696 106.582 696 111V129C696 133.418 692.418 137 688 137H683L676 145V137H665C660.582 137 657 133.418 657 129V111C657 106.582 660.582 103 665 103Z" fill="white"/>
  <defs>
    <linearGradient id="paint0_linear" x1="70" y1="34" x2="748" y2="498" gradientUnits="userSpaceOnUse">
      <stop stop-color="#DBEAFE"/>
      <stop offset="1" stop-color="#E2E8F0"/>
    </linearGradient>
    <linearGradient id="paint1_linear" x1="94" y1="206" x2="260" y2="318" gradientUnits="userSpaceOnUse">
      <stop stop-color="#1D4ED8"/>
      <stop offset="1" stop-color="#2563EB"/>
    </linearGradient>
    <linearGradient id="paint2_linear" x1="578" y1="208" x2="724" y2="388" gradientUnits="userSpaceOnUse">
      <stop stop-color="#BFDBFE"/>
      <stop offset="1" stop-color="#60A5FA"/>
    </linearGradient>
  </defs>
</svg>
